<?xml version="1.0" encoding="utf-8"?>
<!-- Generator: Adobe Illustrator 25.3.1, SVG Export Plug-In . SVG Version: 6.00 Build 0)  -->
<svg version="1.1" id="Layer_1" xmlns="http://www.w3.org/2000/svg" xmlns:xlink="http://www.w3.org/1999/xlink" x="0px" y="0px"
	 viewBox="0 0 841.9 708" style="enable-background:new 0 0 841.9 708;" xml:space="preserve">
<style type="text/css">
	.st0{fill:#E4EEF2;stroke:#284356;stroke-width:5;stroke-linecap:round;stroke-linejoin:round;stroke-miterlimit:10;}
	.st1{fill:#1B9ACC;}
	.st2{fill:#284356;}
	.st3{fill:none;stroke:#284356;stroke-width:5;stroke-linecap:round;stroke-linejoin:round;stroke-miterlimit:10;}
	.st4{fill:#FFFFFF;stroke:#284356;stroke-width:4;stroke-linecap:round;stroke-linejoin:round;stroke-miterlimit:10;}
	.st5{fill:#FFFFFF;stroke:#284356;stroke-width:3;stroke-linecap:round;stroke-linejoin:round;stroke-miterlimit:10;}
	.st6{fill:#EBF4F7;stroke:#284356;stroke-width:3;stroke-linecap:round;stroke-linejoin:round;stroke-miterlimit:10;}
	.st7{fill:#14A797;stroke:#284356;stroke-width:3;stroke-linecap:round;stroke-linejoin:round;stroke-miterlimit:10;}
	.st8{fill:#3DADDD;stroke:#284356;stroke-width:3;stroke-linecap:round;stroke-linejoin:round;stroke-miterlimit:10;}
	.st9{fill:#F4CFB3;stroke:#284356;stroke-width:4;}
	.st10{fill:#F9F9F9;stroke:#284356;stroke-width:4;}
	.st11{fill:#FFFFFF;stroke:#284356;stroke-width:3;}
	.st12{fill:#F4CFB3;stroke:#284356;stroke-width:4;stroke-linecap:round;}
	.st13{fill:#F29471;stroke:#284356;stroke-width:4;stroke-linecap:round;stroke-miterlimit:10;}
	.st14{fill:#EBF4F7;stroke:#284356;stroke-width:1.5;stroke-linecap:round;stroke-linejoin:round;stroke-miterlimit:10;}
	.st15{fill:#FDFEFF;stroke:#284356;stroke-width:4;stroke-miterlimit:10;}
	.st16{fill:#E5BDA3;}
	.st17{fill:#F4CFB3;}
	.st18{fill:#FFF2E9;}
	.st19{fill:#FCDFA6;stroke:#284356;stroke-width:4;stroke-linejoin:round;stroke-miterlimit:10;}
	.st20{fill:none;stroke:#284356;stroke-width:1.5;stroke-linecap:round;stroke-miterlimit:10;}
	.st21{fill:none;stroke:#284356;stroke-width:4;stroke-linecap:round;stroke-miterlimit:10;}
	.st22{font-family:'BernardMT-Condensed';}
	.st23{font-size:20.357px;}
	.st24{font-family:'MyriadPro-Regular';}
	.st25{font-size:13.3009px;}
</style>
<g>
	<g>
		<g>
			<g>
				<path class="st0" d="M641.3,610.5H261.5V395.4c0-10.1,8.2-18.3,18.3-18.3H623c10.1,0,18.3,8.2,18.3,18.3V610.5z"/>
				<rect x="281" y="401.6" class="st1" width="340.9" height="184.4"/>
				<path class="st0" d="M670,621.6c-6.4,6.1-14.9,9.5-23.7,9.5H258.6c-8.8,0-17.4-3.2-24.1-9l-9.6-8.3c-1.8-1.5-0.7-4.5,1.7-4.5
					h449.6c2.5,0,3.7,3,1.9,4.7L670,621.6z"/>
				<path class="st2" d="M383.4,609.1l8.9,7.2c4.6,3.7,10.4,5.8,16.3,5.8h85.8c5.9,0,11.7-2,16.3-5.8l8.9-7.2H383.4z"/>
			</g>
			<line class="st3" x1="-2.7" y1="631.1" x2="848.2" y2="631.1"/>
		</g>
		<line class="st4" x1="159.1" y1="539.5" x2="215" y2="539.5"/>
		<line class="st4" x1="230.3" y1="539.5" x2="241.6" y2="539.5"/>
		<line class="st4" x1="537" y1="267.5" x2="592.8" y2="267.5"/>
		<line class="st4" x1="608.2" y1="267.5" x2="619.5" y2="267.5"/>
		<line class="st4" x1="551.5" y1="178.7" x2="579.5" y2="178.7"/>
		<line class="st4" x1="594.8" y1="178.7" x2="606.1" y2="178.7"/>
		<line class="st4" x1="330.7" y1="251.9" x2="358.7" y2="251.9"/>
		<line class="st4" x1="374" y1="251.9" x2="385.3" y2="251.9"/>
		<line class="st4" x1="299.4" y1="198.4" x2="366.3" y2="198.4"/>
		<line class="st4" x1="293.7" y1="180.6" x2="305" y2="180.6"/>
		<line class="st4" x1="273.2" y1="198.4" x2="284.5" y2="198.4"/>
		<line class="st4" x1="315.7" y1="223.7" x2="379.7" y2="223.7"/>
		<line class="st4" x1="592.8" y1="241" x2="614.6" y2="241"/>
		<line class="st4" x1="630" y1="241" x2="733.6" y2="241"/>
		<line class="st4" x1="183.2" y1="573.4" x2="241.6" y2="573.4"/>
		<line class="st4" x1="127.2" y1="573.4" x2="149.6" y2="573.4"/>
		<line class="st4" x1="189.1" y1="508" x2="245" y2="508"/>
		<line class="st4" x1="210.6" y1="354.1" x2="266.5" y2="354.1"/>
		<line class="st4" x1="281.8" y1="354.1" x2="293.1" y2="354.1"/>
		<line class="st4" x1="310.2" y1="330.1" x2="343.1" y2="330.1"/>
		<line class="st4" x1="363.5" y1="330.1" x2="459.6" y2="330.1"/>
		<line class="st4" x1="258.8" y1="330.1" x2="272.8" y2="330.1"/>
		<line class="st4" x1="664.7" y1="374.8" x2="676" y2="374.8"/>
		<line class="st4" x1="664.7" y1="396.7" x2="739.6" y2="396.7"/>
		<line class="st4" x1="776.8" y1="396.7" x2="797.7" y2="396.7"/>
		<line class="st4" x1="646.4" y1="358.3" x2="679.3" y2="358.3"/>
		<line class="st4" x1="699.7" y1="358.3" x2="713.7" y2="358.3"/>
		<line class="st4" x1="735.4" y1="591.8" x2="746.7" y2="591.8"/>
		<line class="st4" x1="717.1" y1="575.3" x2="750" y2="575.3"/>
		<line class="st4" x1="729.6" y1="559.1" x2="768.9" y2="559.1"/>
		<line class="st4" x1="762.9" y1="575.3" x2="771.9" y2="575.3"/>
	</g>
	<polygon class="st5" points="450.3,278.8 321.1,352.4 321.1,363 581.8,363 581.8,352.7 	"/>
	<rect x="332.4" y="355" class="st6" width="238.1" height="49.8"/>
	<rect x="350.1" y="399.2" class="st6" width="201" height="171"/>
	<rect x="501" y="421.3" class="st7" width="40.9" height="110.1"/>
	<polygon class="st6" points="450.6,292.5 321.4,366 581.4,366 	"/>
	<polygon class="st5" points="451.1,309.5 391.4,343.4 511.4,343.4 	"/>
	<rect x="430.4" y="421.3" class="st7" width="40.9" height="110.1"/>
	<rect x="501" y="421.3" class="st7" width="40.9" height="110.1"/>
	<path class="st5" d="M552,530.8h-10.2V424.2c3.2-1.2,5.6-4.3,5.6-7.9v-5.2h-51.7v5.2c0,3.5,2.2,6.6,5.3,7.8v106.8h-29.6V424.1
		c3.2-1.2,5.5-4.3,5.5-7.9v-5.2h-51.7v5.2c0,3.6,2.2,6.6,5.3,7.9v106.7h-29.6V424.1c3.2-1.2,5.4-4.3,5.4-7.9v-5.2h-51.7v5.2
		c0,3.6,2.2,6.7,5.4,7.9v106.7h-9.1c-4.7,0-8.5,3.8-8.5,8.4v5.2h218.1v-5.2C560.5,534.6,556.7,530.8,552,530.8z"/>
	<g>
		<line class="st8" x1="368" y1="431.5" x2="368" y2="525.9"/>
		<line class="st8" x1="381.1" y1="431.5" x2="381.1" y2="525.9"/>
		<line class="st8" x1="394.2" y1="431.5" x2="394.2" y2="525.9"/>
	</g>
	<g>
		<line class="st8" x1="437.2" y1="431.5" x2="437.2" y2="525.9"/>
		<line class="st8" x1="450.3" y1="431.5" x2="450.3" y2="525.9"/>
		<line class="st8" x1="463.4" y1="431.5" x2="463.4" y2="525.9"/>
	</g>
	<g>
		<line class="st8" x1="509.6" y1="431.5" x2="509.6" y2="525.9"/>
		<line class="st8" x1="522.7" y1="431.5" x2="522.7" y2="525.9"/>
		<line class="st8" x1="535.8" y1="431.5" x2="535.8" y2="525.9"/>
	</g>
	<rect x="321.1" y="396.7" class="st5" width="260.7" height="16.1"/>
	<rect x="321.1" y="355" class="st5" width="260.7" height="16.1"/>
	<rect x="323.6" y="543.3" class="st5" width="255.7" height="14.2"/>
	<rect x="311.3" y="557.5" class="st5" width="280.2" height="14.2"/>
	<rect x="298.6" y="571.7" class="st5" width="305.5" height="14.2"/>
	<g>
		<g>
			<path class="st9" d="M45.5,440c8.2-11.2,30-46.8,30-46.8c3.2-3.2,11-8.2,17.2-3.2c6.3,5.2-0.2,20.7-0.2,20.7
				c4-4.6,16.8-21.4,25.2-12.3c6.1,6.5,0.6,14,0.6,14s5-4.3,10.3,0.4c6.4,5.7-0.9,15.5-0.9,15.5l-4.1,6.5c0,0,4.2-3.3,9.2,2
				c4.5,4.8-1.7,13.4-1.7,13.4l-24.1,37.7c0.1,12.7,0,17.4,0,27.7c0,25.2-13.5,28.5-13.5,28.5v41.4L36,585.8V472.3
				C36,472.3,34.8,454.7,45.5,440z"/>
			<g>
				<path class="st10" d="M180,262.6c13.6,0,24.7,11.1,24.7,24.7v186.2c0,13.6-11.1,24.7-24.7,24.7H86.3
					c-13.6,0-24.7-11.1-24.7-24.7V287.3c0-13.6,11.1-24.7,24.7-24.7H180z"/>
				<rect x="75.1" y="284.2" class="st1" width="115.7" height="178.9"/>
				<path class="st11" d="M131,472.2c-4,0-7.2,3.2-7.2,7.2c0,4,3.3,7.3,7.2,7.3c4,0,7.3-3.2,7.3-7.3
					C138.2,475.4,135,472.2,131,472.2z"/>
			</g>
			<path class="st12" d="M50.1,481.9l42-39.3c0,0,7.8-9,15.7-1.3c6.8,6.5,2.6,15.6-1.7,20.6l-25.6,31.6V515c0,0,1.3,14-4.3,20
				c-3.6,3.9-7.3,6.3-10.6,7.3"/>
			<path class="st13" d="M99.9,599.8c1.1,0,2-0.9,2-2l-0.1-32c0-1.1-0.9-2-2-2L28.8,564c-1.1,0-2,0.9-2,2l0.1,32c0,1.1,0.9,2,2,2
				L99.9,599.8z"/>
			<path class="st13" d="M111.4,627.9l-0.2-24.7c0-8.4-8.1-10.4-9.2-10.3l-75.1,0.3c-4.3,0-4.3,5.8-4.3,6.9l0.2,28.1"/>
		</g>
		<g>
			<g>
				<g>
					<g>
						<g>
							<rect x="163.3" y="362" class="st14" width="13.7" height="36.8"/>
							<polygon class="st14" points="132.7,328.2 89.5,352.8 176.4,352.8 							"/>
							<polygon class="st14" points="110.8,347.1 132.7,334.7 154.8,347.1 							"/>
							<rect x="82.6" y="403.4" class="st14" width="100.6" height="11.1"/>
							<rect x="127.2" y="362" class="st14" width="13.7" height="36.8"/>
							<rect x="91.2" y="362" class="st14" width="13.7" height="36.8"/>
						</g>
					</g>
				</g>
				<rect x="88.3" y="359.1" class="st14" width="19.4" height="6"/>
				<rect x="88.3" y="397.4" class="st14" width="19.4" height="6"/>
				<rect x="124.3" y="359.1" class="st14" width="19.4" height="6"/>
				<rect x="124.3" y="397.4" class="st14" width="19.4" height="6"/>
				<rect x="160.4" y="359.1" class="st14" width="19.4" height="6"/>
				<rect x="160.4" y="397.4" class="st14" width="19.4" height="6"/>
			</g>
			<rect x="84.9" y="350.5" class="st14" width="96" height="8.5"/>
		</g>
	</g>
	<g>
		<path class="st15" d="M802.8,417.4c12.2,0,22.1,9.9,22.1,22.1v62.8c0,12.2-9.9,22.1-22.1,22.1H634.6c-12.2,0-22.1-9.9-22.1-22.1
			v-62.8c0-12.2,9.9-22.1,22.1-22.1H802.8z"/>
		<rect x="627.1" y="453.7" class="st2" width="3.2" height="20.5"/>
		<path class="st2" d="M628.7,479.4c2.2,0,3.9,1.8,3.9,3.9c0,2.2-1.8,3.9-3.9,3.9c-2.2,0-3.9-1.8-3.9-3.9
			C624.8,481.2,626.5,479.4,628.7,479.4z"/>
		<path class="st15" d="M804.4,460.4c5.7,0,10.3,4.6,10.3,10.3c0,5.7-4.6,10.3-10.3,10.3c-5.7,0-10.3-4.6-10.3-10.3
			C794.1,465,798.7,460.4,804.4,460.4z"/>
		<rect x="642.6" y="424.1" class="st1" width="141.3" height="93.2"/>
		<g>
			<g>
				<g>
					<g>
						<g>
							<rect x="742.2" y="462.5" class="st14" width="12.4" height="33.4"/>
							<polygon class="st14" points="714.4,431.8 675.3,454 754,454 							"/>
							<polygon class="st14" points="694.6,448.9 714.4,437.7 734.5,448.9 							"/>
							<rect x="669.1" y="500" class="st14" width="91.2" height="10.1"/>
							<rect x="709.5" y="462.5" class="st14" width="12.4" height="33.4"/>
							<rect x="676.8" y="462.5" class="st14" width="12.4" height="33.4"/>
						</g>
					</g>
				</g>
				<rect x="674.2" y="459.8" class="st14" width="17.6" height="5.4"/>
				<rect x="674.2" y="494.5" class="st14" width="17.6" height="5.4"/>
				<rect x="706.9" y="459.8" class="st14" width="17.6" height="5.4"/>
				<rect x="706.9" y="494.5" class="st14" width="17.6" height="5.4"/>
				<rect x="739.6" y="459.8" class="st14" width="17.6" height="5.4"/>
				<rect x="739.6" y="494.5" class="st14" width="17.6" height="5.4"/>
			</g>
			<rect x="671.2" y="452" class="st14" width="87" height="7.7"/>
		</g>
	</g>
	<g>
		<g>
			<g>
				<g>
					<g>
						<path class="st16" d="M497.3,172.6c-1,0-2.1-0.1-3.2-0.3c-7.1-1.1-13.1-2.8-14.5-3.3l-15.9,0l-14.9-7.4l2.8-2.2
							c0.3-0.2,6.8-5.1,16.3-5.5c1,0,2-0.1,3-0.1c15,0,34.1,3.5,37,4.4c2.1,0.7,3.2,2.7,2.8,5.1
							C510.1,167.4,505.5,172.6,497.3,172.6z"/>
						<path class="st2" d="M470.9,156.3c14.7,0,33.6,3.4,36.3,4.3c3.7,1.2-0.1,9.8-9.9,9.8c-0.9,0-1.9-0.1-2.9-0.2
							c-7.9-1.3-14.6-3.3-14.6-3.3l-15.7,0l-11.2-5.6c0,0,6.2-4.7,15-5C468.9,156.3,469.9,156.3,470.9,156.3 M470.9,151.8v4.4V151.8
							c-1.1,0-2.1,0-3.1,0.1c-10.1,0.4-17.2,5.7-17.5,5.9l-5.7,4.3l6.4,3.2l11.2,5.6l0.9,0.5l1,0l15.1,0c1.9,0.6,7.7,2.2,14.5,3.2
							c1.2,0.2,2.4,0.3,3.6,0.3c8.7,0,14.7-5.5,15.6-10.9c0.6-3.5-1.2-6.5-4.3-7.6C505.2,155.3,486,151.8,470.9,151.8L470.9,151.8z"
							/>
					</g>
				</g>
				<g>
					<g>
						<path class="st16" d="M502.3,189.9c-3.9,0-7.7-1.7-10.6-4.8c-4.3-4.5-6.8-9.1-7.6-10.8l-12.1-7.9l-26.3-10l7.6-1.5
							c0.4-0.1,11-2.2,17.9-2.2c2,0,3.5,0.2,4.6,0.5c6.4,1.9,19.7,14.6,21.1,16l0.1,0.1c2.6,2.8,9.8,10.5,12.2,12.4
							c1.2,1,1.7,2.5,1.2,3.9C509.7,188.2,506.2,189.9,502.3,189.9z"/>
						<path class="st2" d="M471.2,155.1c1.6,0,3,0.1,4,0.4c6.1,1.8,20.2,15.5,20.2,15.5s9.4,10.2,12.5,12.6c1.9,1.5-1.2,4.1-5.6,4.1
							c-2.8,0-6.1-1.1-9-4.1c-5.1-5.3-7.5-10.8-7.5-10.8l-12.8-8.3l-19.3-7.3C453.7,157.2,464.4,155.1,471.2,155.1 M471.2,150.6
							c-7.2,0-17.9,2.1-18.4,2.2l-15.1,3l14.4,5.5l18.8,7.2l11.4,7.4c1.1,2.1,3.6,6.5,7.8,10.8c3.4,3.5,7.8,5.5,12.2,5.5
							c4.9,0,9.1-2.3,10.2-5.6c0.8-2.3,0-4.8-1.9-6.4c-2-1.6-8.4-8.3-12-12.2l-0.1-0.1l-0.1-0.1c-2.5-2.4-15.2-14.5-22-16.6
							C475.1,150.8,473.4,150.6,471.2,150.6L471.2,150.6z"/>
					</g>
				</g>
				<g>
					<g>
						<path class="st16" d="M499.8,207.1c-1.9,0-8.6-0.6-13-8.9c-3.5-6.5-7-13.3-7.5-14.2l-8-11.7c0-0.1-0.1-0.1-0.1-0.2l-9.8-18.6
							c-0.5-0.9-0.3-1.9,0.4-2.6c0.4-0.4,1-0.6,1.6-0.6c0.4,0,0.7,0.1,1.1,0.3c0.6,0.3,15.4,8.6,21.1,15.7
							c9.5,11.7,19.6,31.3,20.7,34.5c0.5,1.3,0.3,2.7-0.5,3.8C504.5,206.2,502.3,207.1,499.8,207.1z"/>
						<path class="st2" d="M463.3,152.5c0,0,14.9,8.3,20.5,15.2c9.5,11.6,19.3,31,20.3,33.9c0.6,1.9-1.4,3.3-4.3,3.3
							c-3.4,0-8-2-11-7.7c-3.8-7-7.6-14.3-7.6-14.3l-8.1-11.8L463.3,152.5 M463.3,148.1c-1.1,0-2.2,0.4-3.1,1.3
							c-1.4,1.4-1.7,3.5-0.8,5.2l9.8,18.6c0.1,0.1,0.2,0.3,0.3,0.4l7.9,11.6c0.7,1.3,4.1,7.8,7.5,14.1c3.4,6.3,8.9,10,14.9,10
							c3.3,0,6.1-1.2,7.7-3.4c1.2-1.7,1.5-3.8,0.8-5.8c-1.2-3.5-11.2-23.1-21.1-35.2c-6.1-7.4-21.1-15.9-21.8-16.3
							C464.8,148.3,464,148.1,463.3,148.1L463.3,148.1z"/>
					</g>
				</g>
				<g>
					<g>
						<path class="st17" d="M428,232.9c-6.1,0-9.1-8.5-11.5-16.5c-5.9-20.3-8-24.7-9.5-27.6c-0.3-0.6-0.6-1.2-0.9-1.8
							c-3.3-7.8-4.9-12.3-6.3-23.5c-1.4-11.2-5.2-20.6-5.2-20.7L394,141l26.5-12.9l37.9,19.4c1.4,0.3,6,1.7,10.1,6.4
							c4.1,4.8,18.3,31.4,18.9,32.6l0.1,0.2l0.2,0.5c0.1,0.3,0.2,0.6,0.3,0.9c0.9,2.8-0.2,9.7-3.7,23.8c-0.2,0.9-0.4,1.5-0.4,1.7
							c-0.4,2.5-3.8,4.8-7.2,4.8c-2.1,0-7.2-1-9.3-9.8c-0.7-3,0.2-7.3,1-10.7c0.3-1.3,0.6-2.9,0.6-3.5c-1.8-5.3-10.9-19.3-25.3-19.3
							c-4.5,0-9.6,3.8-10.4,6.7l-0.1,0.4l-0.3,0.3c-0.1,0.1-6.7,10.5,2.3,33.2c2.2,5.7,1.8,13.3-3.4,16.3
							C430.4,232.6,429.2,232.9,428,232.9z"/>
						<path class="st2" d="M420.5,130.5l37.1,19c0,0,5,0.9,9.1,5.7c4,4.7,18.6,32.2,18.6,32.2c0,0,0,0.1,0,0.1
							c0.2,0.4,0.3,0.7,0.4,1c1.2,3.9-4,23.5-4.2,24.5c-0.2,1.2-2.4,2.9-5,2.9c-2.7,0-5.7-1.9-7.1-8.1c-1-4.3,2.1-12.7,1.6-14.3
							c-1.8-5.6-11.5-21-27.5-21c0,0-0.1,0-0.1,0c-5.6,0-11.3,4.5-12.4,8.3c-1.4,1.7-6.8,13.4,1.9,35.4c2,5.1,1.4,11.4-2.4,13.6
							c-0.9,0.5-1.7,0.7-2.5,0.7c-4.7,0-7.5-8.5-9.3-14.9c-7.2-24.7-8.9-26.2-10.4-29.7c-3.2-7.5-4.8-11.9-6.1-22.9
							c-1.4-11.7-5.3-21.2-5.3-21.2L420.5,130.5 M420.5,125.6l-2,1l-23.6,11.5l-3.7,1.8l1.6,3.8c0,0.1,3.7,9.2,5,20.1
							c1.4,11.4,3.1,16.3,6.5,24.1c0.3,0.7,0.6,1.3,0.9,1.9c1.4,2.8,3.5,7.1,9.3,27.2c2,6.8,5.3,18.1,13.6,18.1
							c1.6,0,3.2-0.4,4.7-1.3c6.3-3.6,6.9-12.5,4.4-19c-8.2-20.7-2.8-30.6-2.6-31l0.5-0.6l0.2-0.9c0.5-1.7,4.4-5.1,8.2-5.1h0.1
							c12.7,0,21.1,12.4,23.1,17.4c-0.1,0.7-0.4,1.9-0.6,2.8c-0.8,3.6-1.8,8.2-0.9,11.7c2.4,10.4,8.8,11.5,11.5,11.5
							c4.5,0,8.7-3,9.4-6.6c0.1-0.2,0.2-0.8,0.4-1.6c4.2-17.1,4.5-22.3,3.6-25c-0.1-0.3-0.2-0.7-0.4-1c0-0.1,0-0.1-0.1-0.2l-0.1-0.3
							l-0.2-0.3c-1.5-2.9-14.9-28.1-19.1-33c-4.2-4.9-9.1-6.6-11-7l-36.7-18.8L420.5,125.6L420.5,125.6z"/>
					</g>
				</g>
				<path class="st13" d="M432.1,129.7L399,59.9L358,79.8l33.7,69.8c0.2,0.5,0.8,0.8,1.2,0.5l38.7-19.1
					C432.2,130.8,432.3,130.1,432.1,129.7z"/>
				<path class="st13" d="M429.4,115.4l-33.1-69.8l-48.7,23.5l33.7,69.8c0.2,0.5,0.8,0.8,1.2,0.5l46.5-22.7
					C429.5,116.5,429.6,115.9,429.4,115.4z"/>
			</g>
			<path class="st18" d="M420.4,221.4l4.9-0.9c1.4-0.3,2.8,0.6,3.2,1.9c0.7,2.8,2.5,7.5-1,8.2C427.4,230.7,423.7,230.7,420.4,221.4z
				"/>
		</g>
		<g>
			<g>
				<g>
					<path class="st19" d="M477.5,230.1c0,12-9.7,21.7-21.7,21.7c-12,0-21.8-9.7-21.8-21.7c0-12,9.7-21.8,21.8-21.8
						C467.7,208.4,477.5,218.1,477.5,230.1z"/>
				</g>
			</g>
			<g>
				<path class="st20" d="M449,236c0,2.6,2,5,5.4,5h2.4c7,0,8.1-10.9,0-10.8l-2.4-0.2c-7.1,0.1-7.2-10.8,0-10.8h2.4
					c3.6,0,5.6,2.3,5.6,5"/>
				<line class="st20" x1="455.7" y1="215.7" x2="455.7" y2="244.5"/>
			</g>
		</g>
	</g>
	<g>
		<line class="st13" x1="40.2" y1="575.2" x2="40.2" y2="591.9"/>
		<line class="st13" x1="56.3" y1="575.2" x2="56.3" y2="591.9"/>
		<line class="st13" x1="72.4" y1="575.2" x2="72.4" y2="591.9"/>
		<line class="st13" x1="88.5" y1="575.2" x2="88.5" y2="591.9"/>
	</g>
	<g>
		<line class="st21" x1="391.8" y1="135.1" x2="394.7" y2="141.3"/>
		<line class="st21" x1="401.5" y1="130.6" x2="404.4" y2="136.8"/>
		<line class="st21" x1="411.2" y1="126.1" x2="414.1" y2="132.3"/>
		<line class="st21" x1="420.9" y1="121.6" x2="423.8" y2="127.8"/>
	</g>
	<text transform="matrix(1 0 0 1 391.1436 392.1221)" class="st2 st22 st23">Spark Bank</text>
	<text transform="matrix(1 0 0 1 550.292 549.1953)" class="st24 st25">Sparks </text>
</g>
</svg>
